<?xml version="1.0" encoding="utf-8"?>
<!-- Generator: Adobe Illustrator 19.1.0, SVG Export Plug-In . SVG Version: 6.00 Build 0)  -->
<svg version="1.1" id="Layer_4" xmlns="http://www.w3.org/2000/svg" xmlns:xlink="http://www.w3.org/1999/xlink" x="0px" y="0px"
	 viewBox="-313 356.2 771.2 288.8" style="enable-background:new -313 356.2 771.2 288.8;" xml:space="preserve">
<style type="text/css">
	.st0{opacity:0.5;}
	.st1{fill:#FFFFFF;}
</style>
<g>
	<g>
		<g id="Page-1_7_" class="st0">
			<path id="Combined-Shape-Copy_7_" class="st1" d="M-291,539h26.9v49.9l20-26h35.5l-22.3,28.7l31.9,51.4h-31.6l-18.1-31.7
				l-15.4,19.8V643H-291V539z M-15,642.2h26.9V539H-15V642.2z M-52.3,562v5.9c-7.5-4.8-16.6-7.2-26.3-6.2
				c-19.1,1.9-34.6,17.2-36.7,36.4c-2.7,24.9,16.6,45.9,40.9,45.9c8.1,0,15.7-2.4,22.1-6.5v4.6h26.9V562H-52.3z M-67.1,621.4
				C-79.6,623-90,612.5-88.5,600c1.1-8.5,7.9-15.4,16.4-16.4c12.4-1.6,22.9,8.9,21.3,21.4C-51.8,613.5-58.6,620.3-67.1,621.4z"/>
		</g>
		<path class="st1" d="M-204.8,610.9V563h27v43.6c0,9.3,7.5,14.1,14.6,14.1c7.1,0,15-4.8,15-14.1V563h26.9v80.1h-26.9v-5.6
			c0,0-6.5,7.3-23.7,7.3C-189.1,644.8-204.8,629.2-204.8,610.9z"/>
		<rect x="21.7" y="563" class="st1" width="26.9" height="80.1"/>
		<ellipse class="st1" cx="35.3" cy="539.8" rx="15.2" ry="15.2"/>
	</g>
	<g class="st0">
		<path class="st1" d="M-41.2,526.8h-158c-2.3,0-4.1-1.8-4.1-4.1V363.5c0-2.3,1.8-4.1,4.1-4.1h158c1.7,0,3.1,1,3.8,2.5
			c0.6,1.5,0.3,3.3-0.9,4.5l-76.7,76.7l76.7,76.7c1.2,1.2,1.5,2.9,0.9,4.5C-38.1,525.8-39.6,526.8-41.2,526.8z M-196.8,520.2h149.6
			l-74.2-74.2c-0.8-0.8-1.2-1.8-1.2-2.9c0-1.1,0.4-2.1,1.2-2.9l74.2-74.2h-149.6V520.2z"/>
	</g>
	<path class="st1" d="M-58.9,375.8c3.7-3.1-0.2-10-4.8-8.2c-21.9,8.4-40,24.2-58.4,38.3c-12.1,9.3-24.8,16.6-37.8,23.5
		c22.8-17.1,47.4-32.1,68.2-51.7c3.4-3.2-0.1-10.2-4.8-8.2c-11.6,4.8-23.1,9.9-34.5,15.2c2.9-2.3,5.8-4.6,8.7-7.1
		c3.7-3.2-0.2-9.9-4.8-8.2c-13.6,4.9-27.3,9.9-40.9,14.8c5-4,10-7.9,15-11.9c3.8-3-0.3-10-4.8-8.2c-5.9,2.3-11.8,4.6-17.7,6.5
		c0.6-3.7-3.2-7.8-7.2-5.2c-5.4,3.6-10.1,7.3-14.8,11.7c-3.9,3.6,0.3,9.1,4.8,8.2c3.6-0.7,7.2-1.6,10.7-2.5
		c-5.3,4.2-10.7,8.5-16,12.7c-3.8,3,0.3,9.9,4.8,8.2c12.8-4.7,25.7-9.3,38.5-14c-13.6,9.3-27.6,17.9-41.1,27.4
		c-5.1,3.6-0.7,11.5,5,8.5c21.4-11.4,43-22.4,64.9-32.7c-24.5,18-50.6,33.9-71.7,56.2c-3.9,4.1,1,10.5,6,7.7
		c23.5-12.9,48-22.4,69.5-38.7c5-3.8,9.9-7.7,14.9-11.7c-2.5,2.2-5,4.3-7.6,6.4c-27.3,22.1-55.9,42.7-81.8,66.5
		c-4.1,3.7,1.3,10.9,6,7.7c13.6-9.1,28.2-15.9,43.4-21.2c-15,13.2-31.5,24.5-48.5,35.3c-5.3,3.4-0.6,11.7,5,8.5
		c18.5-10.6,37.6-19.3,57.5-26.2c-15.8,10.5-32.3,20-48.8,29.5c-5.7,3.2-0.7,11,5,8.5c20.5-8.9,42.4-14.2,64.3-19
		c-4.1,2.5-8.1,5.1-12.3,7.5c-4.8,2.8-1.6,10.6,3.8,9c12-3.4,24-6.1,36.3-8.1c-2.9,2.9-1.7,8.7,3.1,8.5c5.2-0.2,10.5-0.3,15.7-0.5
		c6.3-0.2,6.4-10.1,0-9.9c-0.8,0-1.6,0-2.3,0.1c0.5-0.6,1.1-1.2,1.6-1.8c2.4-2.9,1.2-9-3.5-8.4c-8.2,0.9-16.3,2.2-24.4,3.7
		c3.3-2.2,6.7-4.3,10-6.6c4.6-3.1,1.8-10.3-3.8-9c-16.5,3.8-33.3,7.1-49.7,11.4c12.1-7.7,24-15.8,35.4-24.7c4.1-3.2-0.4-9.3-4.8-8.2
		c-13,3.3-25.7,7.3-38.2,12.1c7.1-5.9,14-12.2,20.4-19c3.4-3.6,0-9.5-4.8-8.2c-9.4,2.4-18.6,5.3-27.6,8.8
		c16.5-13.3,33.5-26.1,50-39.5C-90.7,406-75.7,390.1-58.9,375.8z"/>
</g>
</svg>
